<?xml version="1.0" encoding="utf-8"?>
<!-- Generator: Adobe Illustrator 24.3.0, SVG Export Plug-In . SVG Version: 6.00 Build 0)  -->
<svg version="1.1"  xmlns="http://www.w3.org/2000/svg" xmlns:xlink="http://www.w3.org/1999/xlink" x="0px" y="0px"
	 viewBox="0 0 1366.1 881.7" style="enable-background:new 0 0 1366.1 881.7;" xml:space="preserve">
<style type="text/css">
	.st0{fill-rule:evenodd;clip-rule:evenodd;fill:#FFFFFF;}
	.st1{fill:none;}
	.st2{fill:#FFFFFF;}
</style>
<g>
	<g>
		<g>
			<path class="st0" d="M548.1,250.9c2.5-1.2,5-2.5,7.5-3.9c2.4-1.5,4.8-3.1,7.2-4.7c2.5-1.6,4.6-3.5,6.9-5.3l3.4-2.9l1.7-1.5
				l1.6-1.6c2.1-2.1,4.2-4.2,6.3-6.4c1.1-1.1,2-2.2,3-3.4l2.9-3.5c4-4.7,7.3-9.9,10.8-15.1c6.5-10.6,12.5-22.2,17.1-34.4
				c2.5-6.1,4.4-12.4,6.4-18.8c1-3.2,1.8-6.4,2.6-9.7c0.8-3.3,1.7-6.6,2.3-9.9c5.6-26.5,7.5-54.6,6.1-83c-1.4-28.4-6.2-57-13.8-85.3
				c-7.6-28.2-18.1-56-31-82.8c-12.9-26.8-28.3-52.8-45.7-77.4c-34.9-49.4-78-93.6-126.6-131.5C368-368,314-399.5,257.1-424.4
				c-28.5-12.4-57.8-23-87.6-32.2l-11.2-3.4c-3.7-1.1-7.5-2.1-11.2-3.1l-11.3-3l-5.6-1.5c-1.9-0.5-3.8-0.9-5.7-1.4
				c-7.6-1.8-15.1-3.6-22.7-5.4c-7.6-1.6-15.2-3.1-22.9-4.7c-30.5-5.9-61.3-10.3-92.2-13.3c-7.7-0.7-15.4-1.3-23.2-2
				c-3.8-0.4-7.7-0.5-11.6-0.7l-11.6-0.6c-3.9-0.2-7.7-0.5-11.6-0.6l-11.6-0.3c-7.7-0.2-15.4-0.5-23.2-0.4
				c-61.8-0.5-123.3,4.3-183.8,12.7c-60.5,8.5-120.1,20.9-178.7,35.7c-58.5,14.8-116,32.1-172.5,50.5
				c-56.5,18.4-112.1,38.2-167.1,58c-55,19.9-109.3,39.9-163.5,59.4c-54.2,19.5-108.3,38.3-162.7,56
				c-54.5,17.7-109.4,34.3-165.5,49.6c-56.2,15.4-113.5,29.5-173.2,43.3c-30.6,7.1-61.2,14.2-91.5,21.2
				c-31.2,7.3-63.3,15.1-96.5,24.1c-16.5-31.1-22.2-59.7-19.5-85.9c1.4-13.1,4.8-25.5,10-37.2c5.2-11.7,12.2-22.8,20.6-33.2
				c16.7-20.8,39.1-38.8,64.3-54.5c12.6-7.9,26-15.2,39.8-22.1c13.8-6.9,28-13.4,42.4-19.6c14.4-6.2,29-12.2,43.4-18.1
				c14.5-5.9,28.8-11.7,42.9-17.6c14.1-6,27.8-12,41-18.5c13.2-6.5,25.9-13.3,37.8-20.7c47.8-29.7,83.9-68.9,96.2-134
				c-6.3-17.8-21.5-21.8-41.5-18.8c-20,3-44.5,12.9-69.1,22.7c-24.6,9.8-49.4,19.4-70.6,21c-5.3,0.4-10.4,0.3-15.2-0.4
				c-4.8-0.7-9.3-2.1-13.5-4.2c-8.4-4.3-15.4-11.6-20.6-23c4.9-25.6,14.4-50.3,27.8-73.5c13.4-23.1,30.6-44.6,50.8-64
				c40.3-38.7,92.4-68.2,147.6-85c55.3-16.8,113.6-20.7,166.4-10c26.4,5.3,51.4,14.3,74.2,26.9c22.7,12.6,43.1,28.9,60.4,48.8
				c48.1-25.4,97.1-52.3,147.5-79.4c50.4-27.1,102.3-54.4,156.3-80.6c53.9-26.2,109.8-51.3,167.9-73.7
				c58.1-22.4,118.4-42.3,180.8-57.8c62.4-15.4,126.7-26.6,191.9-32c65.2-5.4,131.4-5.1,196.8,2.6c8.2,1,16.4,2,24.5,3.1
				c2,0.3,4.1,0.5,6.1,0.9l6.1,1c4.1,0.7,8.1,1.3,12.2,2c8.1,1.4,16.2,2.8,24.3,4.4c8.1,1.7,16.1,3.4,24.2,5.2c4,0.9,8,1.9,12,2.8
				c4,1,8,2,12,3.1c8,2.1,15.9,4.3,23.8,6.5c7.9,2.3,15.8,4.8,23.6,7.3c3.9,1.3,7.8,2.6,11.7,3.9l5.8,2l5.8,2.1
				c15.5,5.7,30.8,11.5,45.9,18.2c7.5,3.3,15,6.6,22.5,10.1c7.4,3.6,14.8,7.2,22.1,11c3.7,1.9,7.3,3.8,10.9,5.7
				c3.6,1.9,7.2,4,10.8,6c7.2,4,14.3,8.1,21.3,12.3c7,4.2,13.9,8.7,20.8,13.2c6.9,4.5,13.7,9,20.4,13.8c22.5,28.7,33,51.9,36.7,70.8
				c3.6,19.2,0.5,34.4-4.9,48.2c-5.5,13.8-13.3,26.1-19.6,39.4c-6.3,13.3-11,27.5-10.7,44.8c75,12.4,147.8,40.6,212.9,81.8
				c65.1,41.1,122.6,94.8,168.5,155.9C891.5-391.6,925.7-323,946.5-253c20.8,70,28.2,141.2,22.4,207c-2.9,32.9-9,64.5-18,93.8
				c-1.1,3.7-2.3,7.3-3.5,10.9c-1.2,3.6-2.4,7.1-3.8,10.7c-2.6,7.1-5.4,14-8.3,20.7c-6,13.5-12.4,26.3-19.6,38.4
				c-7,12-15,23.4-23,33.9c-4.1,5.3-8.4,10.4-12.8,15.2c-2.2,2.4-4.4,4.8-6.6,7.1c-2.2,2.3-4.5,4.6-6.8,6.8
				c-4.6,4.4-9.3,8.6-14,12.6c-4.7,4-9.7,7.8-14.6,11.4c-4.9,3.6-9.9,6.9-14.9,10c-5.1,3.1-10.3,6.1-15.5,8.8
				c-5.2,2.7-10.4,5.2-15.6,7.5c-5.3,2.3-10.7,4.4-16,6.2c-5.4,1.9-10.7,3.6-16.1,5.1c-2.7,0.8-5.4,1.5-8.1,2.1
				c-2.7,0.7-5.5,1.3-8.2,1.8c-21.9,4.5-43.8,6.3-65.7,6.2c-21.9,0-43.7-1.8-65.4-4.3c-10.8-1.2-21.6-2.6-32.3-4
				c-4.8-0.6-10.1-1.3-16-2.1C558.8,252.4,553.4,251.6,548.1,250.9z"/>
			<path class="st0" d="M-1267.6,2.9c-6.4,14.7,7,26.9,21.4,39.2c14.6,12.3,30.1,24.7,30,38.4c-24.8,5.4-55.1,3.4-89.6-2.2
				c-34.5-5.6-73.1-15-114.1-24.8c-41-9.7-84.4-19.8-127.9-26.9c-43.5-7.2-87-11.4-127.4-10.2c8.2,3.9,15.5,9,21.8,14.6
				c6.3,5.6,11.7,11.8,16.1,18.2c8.8,12.8,13.6,26.1,14,37.3c0,2.8-0.1,5.5-0.7,8c-0.4,2.5-1.4,4.9-2.5,7.1
				c-2.3,4.4-6,8.2-11.3,11.5c-5.3,3.2-12.3,5.9-21.4,8.7c-9.1,2.8-20.3,5.6-33.8,9.7c-9.6,0.4-17.7-0.8-24.8-3.6
				c-3.5-1.4-6.8-3.2-10.1-5.2c-3.1-2-6.2-4.3-9.2-6.6c-3-2.3-6-4.7-9.2-7c-3.2-2.3-6.4-4.4-10-6.1c-7.2-3.5-15.7-5.5-26.9-3.2
				c-10.7,6.5-19,14.5-24.9,23.2c-5.9,8.7-9.5,18.2-10.7,28c-1.3,9.7-0.3,19.7,2.6,29c2.9,9.3,7.6,18,13.5,25.5
				c5.9,7.5,12.9,13.7,20.2,18.8c7.3,5.1,14.9,9.1,22.3,12.6c7.4,3.5,14.5,6.5,21.4,9.6c6.8,3.2,13.3,6.5,19.5,10.8
				c4.1,11.7,8.5,22.6,12.5,32.8c4.1,10.1,7.8,19.6,10.9,28.4c1.5,4.4,2.9,8.6,4.1,12.7c1.2,4.1,2.2,7.9,3,11.7
				c1.6,7.5,2.4,14.4,2.2,20.7c-15.3,0.6-31.1-0.2-47.6-3c-4.1-0.8-8.2-1.5-12.5-2.5l-6.3-1.5l-6.4-1.8c-4.2-1.2-8.6-2.7-12.9-4.2
				c-2.2-0.7-4.4-1.7-6.5-2.5l-3.3-1.3l-1.6-0.7l-1.7-0.7c-4.4-2-8.8-4-13.3-6.4l-3.3-1.8l-1.7-0.9l-1.7-1c-2.2-1.3-4.5-2.6-6.7-4
				c-2.2-1.3-4.5-2.9-6.7-4.4c-2.2-1.5-4.4-3-6.6-4.7c-2.2-1.6-4.4-3.3-6.6-5c-2.2-1.8-4.3-3.6-6.5-5.5
				c-17.1-14.8-33.2-34.2-44.9-56.2c-1.5-2.7-2.9-5.5-4.2-8.3c-1.3-2.8-2.7-5.6-3.8-8.5c-1.2-2.9-2.3-5.7-3.4-8.6
				c-1-2.9-2-5.8-2.9-8.7c-3.6-11.6-6.1-23.3-7.4-34.6l-0.5-4.3l-0.3-4.2c-0.2-2.8-0.4-5.6-0.5-8.3c-0.1-2.7-0.1-5.4-0.1-8.1
				c0-1.3,0-2.7,0-4l0.2-3.9c0.1-2.6,0.2-5.3,0.4-7.8c0.2-2.5,0.5-5.1,0.8-7.6l0.4-3.8l0.6-3.6c0.4-2.4,0.8-4.9,1.2-7.3
				c3.6-18.4,9.2-35.7,16.3-51.6c7.1-15.9,15.6-30.4,25-43.7c18.9-26.5,41.4-47.9,65.5-65.5c24.1-17.6,49.8-31.6,76.2-42.9
				c53-22.5,108.9-34.7,164.8-41.4c55.9-6.7,111.9-7.8,166.4-6.8c54.5,1,107.4,4.2,157.8,6.5c50.4,2.4,98.4,4,143.3,1.9
				c45-2,86.9-7.7,126-19.7c10.5,33.9,8.3,68.5-2.8,98.6c-11.2,30.1-31.1,56-57.9,73.2c-26.8,17.3-60.5,26-101.1,22.3
				C-1163.9,51-1211.4,35-1267.6,2.9z"/>
			<g>
				<g>
					<path class="st1" d="M-1239.8-297.5c-58.3,7.5-117.3,20.3-176.2,39c-29.4,9.3-58.8,20.1-87.9,32.5
						c-29.1,12.4-58,26.4-86.4,42.2c-28.4,15.8-56.3,33.5-83.4,53.5c-27,19.9-53.1,42.2-77.6,67.5c-12.2,12.7-23.9,26.1-35,40.5
						c-11,14.5-21.4,29.8-30.7,46.4c-1.2,2.1-2.3,4.1-3.4,6.3c-1.1,2.1-2.2,4.2-3.3,6.4c-2.1,4.3-4.3,8.7-6.3,13.2
						c-4,8.9-7.7,18.1-10.9,27.8c-3.2,9.6-5.9,19.5-8.1,29.8l-1.5,7.8c-0.5,2.6-0.8,5.2-1.2,7.9c-0.4,2.6-0.7,5.4-1,8.1l-0.4,4.1
						l-0.3,4.2c-0.7,11.2-0.5,23,1,35.1c1.5,12.1,4.4,24.6,8.9,36.8c4.5,12.2,10.5,24.1,17.9,35c7.3,10.9,15.8,20.8,24.9,29.5
						c9.1,8.7,18.7,16.2,28.5,22.8c9.8,6.6,19.7,12.2,29.7,17.1c19.9,9.9,39.7,16.9,59.3,22.8c9.8,2.8,19.5,5.3,29.2,7.6
						c9.7,2.2,19.3,4.2,28.8,5.8c19.1,3.4,38.1,5.9,56.9,7.9c37.6,3.9,74.8,5.6,111.7,6.1c36.9,0.5,73.5-0.3,110-1.7
						c36.5-1.5,72.8-3.7,109-6.4c72.4-5.4,144.5-12.6,216.4-20.4c143.7-15.5,286.6-32.9,428.6-45.2c142-12.3,282.9-19.7,421.3-14.6
						c69.2,2.5,137.9,7.9,205.6,16c67.7,8.1,134.4,19,199.8,32.1c65.4,13,129.5,28.4,192.3,44.6c31.5,8.2,62.7,16.3,93.5,24.3
						c31,8,61.8,15.7,92.9,22.1c23.2,4.7,42.9,7.6,59.3,9c16.4,1.4,29.6,1.3,39.6,0.6c10-0.7,16.9-1.9,21-2.7c4.1-0.9,5.5-1.2,4.6-1
						c-0.8,0.2-3.9,0.9-8.6,1.7c-4.7,0.8-11,1.6-18.3,2.1c-7.3,0.5-15.7,0.5-24.4,0.2c-8.7-0.4-17.9-1.1-26.9-2.2
						c-18.1-2.2-35.7-5.5-49.2-8.3c-13.5-2.8-22.9-5.1-24.4-5.4c-1.5-0.4,4.9,1.2,23.3,5c9.2,1.9,21.5,4.3,37.5,6.7
						c8,1.2,17,2.3,27.1,3.1c5,0.4,10.4,0.7,16,0.9c5.6,0.1,11.6,0.1,17.8-0.2"/>
					<path class="st2" d="M-1133.2-409c-69.9,6-140.1,17.9-209.7,36c-34.8,9-69.4,19.7-103.8,32c-34.4,12.3-68.5,26.2-102.2,42.1
						c-33.7,15.9-67,33.6-99.7,53.7c-32.6,20.1-64.7,42.4-95.7,67.9c-15.5,12.8-30.7,26.3-45.6,40.8c-14.8,14.6-29.3,30.1-43.2,46.9
						c-7,8.4-13.7,17.2-20.4,26.3c-6.6,9.2-13,18.6-19.2,28.6c-6.2,10-12.1,20.3-17.7,31.2c-5.6,10.9-10.8,22.3-15.6,34.3
						c-9.5,24-17.2,50.4-21.3,79.1c-4,28.4-4.9,63.1,4,100.3c0.5,2.3,1.2,4.6,1.8,7c0.6,2.3,1.3,4.7,2,7c1.4,4.7,3.1,9.3,4.7,14
						c1.8,4.6,3.7,9.3,5.7,13.9c1,2.3,2.1,4.6,3.2,6.8c1.1,2.3,2.2,4.5,3.4,6.7c9.4,17.9,21.1,34.5,33.9,48.8
						c12.8,14.4,26.6,26.7,40.3,37c13.7,10.3,27.5,18.7,40.8,25.9c13.4,7.1,26.4,13,39,18c12.7,5,25,9.2,37,12.9
						c12,3.6,23.7,6.6,35.2,9.3c11.5,2.7,22.7,4.9,33.8,6.9c11.1,2,21.9,3.6,32.6,5.1c10.7,1.4,21.3,2.7,31.8,3.7
						c21,2.1,41.4,3.5,61.6,4.4c40.4,1.8,79.6,1.8,118.3,0.8c38.7-1,76.7-3,114.4-5.6c75.4-5.2,149.4-12.7,222.8-20.8
						c73.4-8.2,146.2-17.1,218.6-25.7c72.4-8.6,144.4-17,216.2-24.2c71.8-7.2,143.3-13.2,214.4-17.1c35.6-2,71.1-3.3,106.4-4.1
						c35.4-0.7,70.6-0.8,105.8,0c70.5,1.5,140.9,6.2,211,14c70.1,7.8,139.9,18.8,209.2,32.6c34.7,6.9,69.3,14.5,103.9,22.6
						c34.6,8.1,69.1,16.9,103.9,25.9c34.8,9,69.8,18.3,105.8,27.2c18,4.4,36.3,8.8,55.2,12.8c18.9,4,38.4,7.6,59.2,10.3
						c16.1-8.5,32.3-17.7,47.5-28.1c15.2-10.4,29.8-22.1,41.4-35.6c5.8-6.7,10.7-13.8,14.4-21.2c3.7-7.3,6.1-14.8,7.1-22
						c1-7.2,0.7-14.2-0.7-20.6c-1.3-6.5-3.6-12.5-6.4-18.2c-1.7,3-3.5,5.6-5.3,7.7c-1.8,2.2-3.7,3.9-5.7,5.5c-2,1.6-4.3,2.9-7,4.1
						c-2.7,1.2-5.7,2.3-9.2,3.2c-7,1.8-15.6,2.8-25.1,2.9c-4.7,0.1-9.7-0.1-14.8-0.4c-5.1-0.3-10.3-0.8-15.7-1.4
						c-6.1,4.6-12.6,9-19.3,13.2c-6.7,4.3-13.6,8.4-20.6,12.4c-14.1,8-28.7,15.5-43.6,22.8c-29.7,14.6-60.3,28.1-90.6,41.5
						c19.6,5.1,39.3,10.3,59.6,15.2c20.3,5,41,9.7,62.8,13.7c15.2,2.7,34.4,3.7,56.6,1.9c11.1-1,23.1-2.7,35.6-5.7
						c6.3-1.5,12.7-3.3,19.2-5.5c6.5-2.2,13.2-4.9,19.8-8c13.2-6.2,26.4-14.6,37.4-25.1c11.1-10.5,19.8-22.7,25.2-34.8
						c1.4-3,2.5-6,3.6-9c1-3,1.9-5.9,2.6-8.8c0.8-2.9,1.2-5.7,1.7-8.5c0.2-1.4,0.4-2.7,0.5-4.1c0.2-1.3,0.3-2.7,0.4-4
						c0.8-10.5,0-19.9-1.6-28.1c-1.6-8.2-3.9-15.4-6.6-21.4c-1.3-3-2.8-5.8-4.2-8.2c-1.5-2.5-3-4.7-4.6-6.5
						c-6.3-7.6-12.8-10.7-19-8.9c-1.5,0.5-3.1,1.2-4.6,2.3c-1.5,1.1-3,2.5-4.5,4.1c-0.7,0.8-1.5,1.8-2.2,2.8c-0.8,1-1.5,2-2.2,3.2
						c-0.7,1.1-1.5,2.3-2.2,3.6c-0.8,1.3-1.5,2.6-2.3,4c-0.7,1.3-1.5,2.8-2.4,4.3c-0.4,0.7-0.8,1.5-1.2,2.3
						c-0.4,0.7-0.8,1.5-1.2,2.3c-1.7,3.1-3.4,6.3-5.3,9.5c-1.9,3.1-3.9,6.2-5.9,9c-1,1.4-2.1,2.7-3.2,4c-1.1,1.2-2.2,2.4-3.4,3.5
						c-3.1,2.9-6.3,5.1-10.8,7c-4.4,1.9-10,3.4-16.6,4.4c-1.6,0.3-3.4,0.4-5.1,0.6c-1.8,0.1-3.5,0.3-5.4,0.4
						c-1.8,0.1-3.7,0.2-5.6,0.2c-2,0-3.9,0.1-5.9,0c-7.9-0.1-16.4-0.6-25-1.5c-11.8-1.1-26.9-1.4-44.1-1.4
						c-17.2,0.1-36.5,0.6-56.3,1.7c-39.6,2.1-81.1,6.5-111.8,14c-30.7,7.5-50.7,18-48.4,30.8c1.2,6.4,7.9,13.4,21.7,20.9
						c13.9,7.5,34.7,15.5,64.8,23.9c24,6.7,48.3,13.2,73.6,19.1c25.3,5.9,51.4,11.4,80,15c8.1,1,17.2,1.5,27.4,1.2
						c10.2-0.3,21.4-1.3,33.6-3.6c6.1-1.2,12.4-2.6,19-4.4c6.6-1.9,13.3-4.1,20.2-6.9c6.9-2.8,13.8-6.2,20.7-10.2
						c6.9-4,13.6-8.7,19.9-14c6.3-5.3,12.2-11.2,17.3-17.5c5.1-6.3,9.4-12.9,13-19.6c3.5-6.7,6.3-13.4,8.2-19.9
						c2-6.5,3.4-12.9,4.1-18.9c1.7-12.1,1.3-23.2,0.1-33.1c-1.3-9.9-3.5-18.7-6.1-26.5c-5.3-15.6-12.3-27.1-19.1-34.3
						c-6.9-7.2-13.6-9.9-19.7-7.5c-6.1,2.3-11.3,9.9-16.4,22.7c-2.6,6.3-5.2,14-8.2,22.2c-1.5,4.1-3.1,8.4-4.9,12.6
						c-1.8,4.2-3.7,8.4-5.9,12.1c-1.2,2.1-2.4,3.9-3.7,5.6c-1.2,1.7-2.5,3.1-3.8,4.4c-2.6,2.6-5.4,4.7-8.9,6.5
						c-1.7,0.9-3.7,1.8-5.8,2.5c-2.1,0.8-4.5,1.5-7,2.1c-2.5,0.6-5.3,1.1-8.2,1.5c-1.5,0.2-2.9,0.4-4.5,0.5l-2.3,0.2l-2.4,0.2
						c-6.4,0.4-13.3,0.4-20.5,0.1c-7.2-0.3-14.7-0.9-22.3-1.8c-15.3-1.7-31.1-4.4-47.2-7.5c-32.2-6.2-65.3-14.1-98.6-22.2
						c-33.4-8.1-67.1-16.5-101-24.5c-67.9-16.2-136.9-31.1-206.6-43.2C139.4,253,69,243.3-1.7,236.7
						c-70.7-6.7-141.6-10.4-212.6-11.3c-70.9-0.9-141.8,1.1-212.5,5c-141.3,7.7-281.9,22.5-422.1,37.3
						C-919,275-989,282.4-1059.1,289c-70.1,6.5-140.2,12.2-210.4,15.7c-35.1,1.7-70.2,2.9-105.3,3.2c-35.1,0.3-70.2-0.3-105.3-2.2
						c-35-1.9-70-5.2-104.6-10.7c-17.3-2.9-34.5-6.2-51.4-10.5c-16.9-4.3-33.6-9.4-49.6-15.8c-8-3.2-15.9-6.7-23.5-10.7
						c-7.6-3.9-14.9-8.2-21.9-13c-13.9-9.5-26.1-20.9-34.8-34c-4.4-6.5-7.9-13.4-10.4-20.5c-2.6-7.1-4.2-14.4-5-21.8
						c-0.8-7.4-0.8-14.9-0.2-22.3c0.7-7.5,1.9-14.9,3.7-22.4c3.7-14.9,9.1-29.3,16-43c1.7-3.4,3.5-6.8,5.4-10.2
						c1.9-3.3,3.8-6.7,5.9-9.9c2-3.3,4.2-6.5,6.3-9.7l3.3-4.7c1.1-1.6,2.2-3.1,3.4-4.7c18.3-24.9,40.4-47.2,64.2-67.4
						c48-40.3,103.1-72.2,160.6-97.7c28.8-12.7,58.3-23.8,88.3-33.4c30-9.6,60.3-17.7,91-24.3c20.8-4.5,49.5-22.7,80.5-46.3
						c15.5-11.8,31.5-25,47.2-38.7c15.7-13.7,31.2-27.8,45.2-41.7c14.1-13.8,26.8-27.3,37-39.7c10.2-12.4,17.9-23.8,21.8-33.3
						c3.9-9.5,4.1-17.3-0.8-22.3C-1107.2-408-1117.1-410.3-1133.2-409z"/>
				</g>
			</g>
		</g>
	</g>
</g>
<g>
	<g>
		<g>
			<path class="st0" d="M-29.3,580c-2.1,1.9-4.2,3.8-6.2,5.8c-1.9,2.1-3.8,4.3-5.7,6.5c-2,2.2-3.5,4.6-5.2,7l-2.5,3.7
				c-0.4,0.6-0.8,1.2-1.2,1.9l-1.1,1.9c-1.5,2.6-2.9,5.2-4.3,7.9c-0.7,1.3-1.3,2.7-1.9,4.1l-1.8,4.2l-1.8,4.3
				c-0.6,1.4-1.1,2.9-1.6,4.4c-1,2.9-2,5.9-3,8.9c-0.9,3-1.6,6.1-2.4,9.2l-1.1,4.7c-0.3,1.6-0.6,3.1-0.9,4.7
				c-0.6,3.2-1.1,6.4-1.6,9.6c-0.4,3.2-0.8,6.5-1.1,9.8l-0.5,4.9c-0.2,1.7-0.2,3.3-0.3,5c-0.1,3.3-0.3,6.7-0.3,10
				c-0.1,3.4,0.1,6.7,0.1,10.1l0.2,5.1l0.1,2.6l0.2,2.5c1.9,27.2,7.7,55,16.9,82.1c9.2,27.1,21.7,53.5,36.9,78.7
				c30.3,50.5,71.1,95.9,118.5,134c47.4,38.1,101.4,69.1,158.9,92.3c57.5,23.2,118.5,38.7,180.5,46.8l11.6,1.4
				c3.9,0.5,7.8,1,11.7,1.3c7.8,0.7,15.6,1.4,23.4,2.1c7.8,0.5,15.6,0.9,23.5,1.3c3.9,0.3,7.8,0.3,11.7,0.4l11.7,0.3
				c31.3,0.5,62.7-0.7,93.9-3.4c7.8-0.8,15.6-1.6,23.4-2.3c7.8-0.9,15.5-2,23.3-3l5.8-0.8c1.9-0.3,3.9-0.6,5.8-0.9l11.6-1.9
				l11.6-1.9l11.5-2.2l11.5-2.2l5.7-1.1l5.7-1.2l22.8-5c15.2-3.7,30.3-7.4,45.2-11.7l11.2-3.1c3.7-1,7.5-2.2,11.2-3.4
				c7.4-2.3,14.8-4.5,22.2-6.9l22.1-7.4l5.5-1.9l5.5-2l10.9-4l10.9-4c3.6-1.3,7.2-2.8,10.8-4.2c7.2-2.8,14.4-5.6,21.5-8.5
				c14.3-6,28.4-11.9,42.5-18.2c56.2-25.2,110.4-53.8,162.9-84.5c52.5-30.7,103.3-63.4,152.9-97c49.5-33.6,97.8-68.2,145.5-102.7
				c47.6-34.6,94.6-69.1,141.5-103.1c47-33.9,93.9-67.3,141.5-99.6c47.6-32.4,96-63.7,145.8-94.3c12.4-7.6,25-15.2,37.6-22.8
				c12.6-7.6,25.4-15.1,38.2-22.6c25.7-15,51.9-30,78.6-45.2c26.7-15.2,54-30.5,81.9-46.6c27.9-16.1,56.4-32.8,85.6-51.3
				c25.2,24.9,39.2,50.8,44.2,76.9c5.1,26.1,1.1,52.1-9,77.1c-10.2,25-26.5,48.9-46.4,71.4c-19.9,22.6-43.3,43.7-67.5,64
				c-12.2,10.1-24.5,20-36.9,29.8c-12.3,9.8-24.6,19.5-36.5,29.2c-23.8,19.5-46.3,39.1-65.2,60.1c-37.9,42.2-61.8,90.3-55.5,156.7
				c5.5,7.7,12.3,11.5,19.9,12.3c7.7,0.8,16.3-1.5,25.5-5.7c18.5-8.5,39.4-25,60.5-41.4c21.1-16.4,42.4-32.7,62.4-40.3
				c20.1-7.5,39.1-6.4,55.5,12.8c2.5,26.2,0.2,52.8-6.3,79c-6.5,26.2-17.2,51.9-31.3,76.3c-14.1,24.4-31.7,47.4-51.9,68.3
				c-20.2,20.9-42.9,39.6-67.3,55.5c-48.8,31.8-104.2,51.9-158.3,56.3c-27.1,2.2-53.8,0.6-79.3-5.3c-25.5-5.9-49.8-15.9-72-30.4
				c-39.5,38-79.3,77.7-120.6,117.9c-41.2,40.3-83.9,81.2-128.7,121.6c-44.9,40.4-91.9,80.2-141.9,118.2
				c-49.9,37.9-102.8,73.9-158.8,106.3c-14,8.1-28.2,16-42.6,23.6c-7.2,3.8-14.5,7.5-21.7,11.2c-7.3,3.7-14.6,7.3-22,10.9
				c-7.4,3.5-14.8,6.9-22.3,10.3l-11.2,5.1l-5.6,2.5l-5.7,2.4c-7.6,3.2-15.2,6.4-22.8,9.5l-11.4,4.6l-11.6,4.4
				c-61.6,23.4-125.8,41.4-191.3,52.5c-65.5,10.9-132.3,14.9-198.5,10.6c-4.1-0.2-8.3-0.6-12.4-0.9c-4.1-0.4-8.3-0.8-12.4-1.1
				c-4.1-0.4-8.2-0.8-12.4-1.3c-4.1-0.4-8.2-0.9-12.3-1.5c-16.4-2.3-32.8-4.7-49-8.1c-8.1-1.6-16.2-3.3-24.3-5.2
				c-8.1-1.9-16.1-4-24.1-6.1c-4-1.1-8-2.2-12-3.3c-4-1.2-7.9-2.4-11.9-3.6c-7.9-2.5-15.8-5-23.6-7.7
				c-14.9-10.9-26.5-21.1-35.5-30.7c-9-9.8-15.3-19-19.8-27.7c-8.9-17.4-10.1-33.1-8.6-47.9c1.5-14.9,5.6-29,8-43.6
				c2.4-14.6,3-29.7-2.1-46.4c-38,4.5-76.7,4.9-115.1,1.5c-38.4-3.5-76.6-10.8-113.9-21.7c-74.5-21.8-145.1-57.8-206.5-104.5
				c-61.4-46.6-113.6-103.7-153-165.8c-39.5-62.1-66.3-129-78.8-194.5c-6.3-32.7-9-65-8.4-95.9c0.6-30.8,4.8-60.5,12-87.8
				c0.9-3.4,1.8-6.8,2.8-10.1c0.5-1.7,1-3.3,1.5-5c0.5-1.7,1.1-3.3,1.6-5c2.2-6.6,4.6-13,7.1-19.2c2.5-6.2,5.3-12.3,8.2-18.2
				c1.4-2.9,2.9-5.8,4.4-8.7c1.5-2.8,3.1-5.7,4.7-8.5c3.2-5.6,6.6-10.9,10.1-16.1c1.7-2.6,3.5-5.1,5.4-7.6c1.8-2.5,3.7-5,5.6-7.4
				c3.8-4.8,7.7-9.4,11.7-13.8c4.1-4.4,8.3-8.7,12.6-12.7c4.3-4,8.7-7.9,13.1-11.5c4.5-3.7,9.2-7.1,13.8-10.4
				c4.7-3.3,9.4-6.4,14.3-9.3c2.4-1.5,4.8-2.9,7.3-4.3c2.4-1.4,4.9-2.7,7.4-4c20-10.4,40.8-18,62-24c21.2-5.9,42.9-10.1,64.5-13.7
				c10.8-1.8,21.6-3.4,32.4-5c4.8-0.7,10.1-1.5,16-2.4C-40.5,581.6-35.1,580.8-29.3,580z"/>
			<path class="st0" d="M1792.3,314.7c1.9-15.9-14.4-23.9-31.9-31.7c-8.7-3.9-17.7-7.7-25-12.2c-7.3-4.5-12.9-9.7-14.8-16.3
				c22.2-12,51.8-18.5,86.4-22.5c34.6-4.1,74.2-5.7,116.3-7.7c42-2,86.5-4.6,130.1-10.1c43.6-5.5,86.5-14.1,124.5-27.5
				c-18.2-2.4-34.2-10-46.7-19.1c-12.5-9.2-21.5-19.8-25.7-29.5c-2.1-4.9-3-9.5-2.3-13.9c0.7-4.4,2.7-8.4,6.7-12.5
				c3.9-4.1,9.6-8.2,17.3-13.2c2-1.3,4.1-2.7,6.1-4c2.2-1.4,4.4-2.8,6.8-4.5c0.1-0.1,0.2-0.1,0.2-0.2l0.2-0.2l0.4-0.5l0.8-1l1.7-2
				c1.1-1.3,2.3-2.8,3.5-4.1l3.7-4.1l1.9-2.1l2-2.1c8.9-4.2,17-5.3,24.9-4.5c3.9,0.5,7.8,1.4,11.6,2.5c3.8,1.2,7.6,2.6,11.4,4.1
				c3.7,1.1,7.3,2,11.2,2.9c3.8,0.9,7.6,1.6,11.6,1.9c8,0.5,16.7-0.7,26.4-6.9c2-2.5,3.6-5,5.2-7.6c1.6-2.6,2.9-5.2,4.2-7.8
				c1.2-2.6,2.3-5.2,3.3-7.7c1-2.6,1.8-5.1,2.4-7.6c2.7-10.1,3.3-19.9,2-29.3c-1.3-9.5-4.5-18.6-9.8-27.2c-2.7-4.3-5.9-8.5-9.7-12.3
				c-3.8-3.8-8.3-7.4-13.5-10.2c-5.2-2.8-11-4.8-16.8-5.4c-5.8-0.7-11.5-0.1-16.4,1.2c-5,1.3-9.4,3.3-13.3,5.6
				c-3.9,2.3-7.4,4.8-10.7,7.3c-6.6,5.1-12.4,10.3-18.3,15c-5.9,4.7-12,9-18.7,12.4c-12.3-2-23.8-3.8-34.4-5.9
				c-10.6-2-20.3-4.2-29-6.8c-17.5-5.1-31.1-11.4-41.1-19.2c3.4-5.8,6.9-11.5,10.8-17.1c3.9-5.6,8-11.2,12.4-16.8
				c4.5-5.6,9.3-11.1,14.6-16.6c5.3-5.5,11.2-11.1,17.8-16.7c6.7-5.6,14.2-11.2,23.4-16.9c9.2-5.7,20-11.5,34.4-16.8
				c0.8-0.3,1.9-0.7,2.8-1l2.9-0.9c1.9-0.6,3.8-1.2,6-1.8c2.1-0.6,4.3-1.1,6.4-1.7c0.5-0.1,1.1-0.3,1.7-0.4l1.8-0.4l3.5-0.7l3.6-0.7
				l3.9-0.6l3.9-0.5c1.3-0.1,2.5-0.3,4-0.4c2.8-0.2,5.6-0.4,8.4-0.5c1.4-0.1,2.9-0.1,4.4-0.1c1.5,0,3,0,4.5,0.1
				c12.1,0.4,25.4,2.3,38.3,6.3c12.9,4,25.1,9.8,35.6,16.6c10.4,6.7,18.9,14.1,26,21.3c1.7,1.8,3.3,3.5,4.9,5.3l2.4,2.7
				c0.7,0.9,1.4,1.7,2.1,2.6c1.4,1.7,2.7,3.4,4,5.2c1.2,1.7,2.3,3.3,3.5,4.9c9,13.2,14.4,24.7,18.5,35.2c4,10.4,6.7,19.8,8.7,28.8
				c2,8.9,3.4,17.3,4.3,25.4l0.3,3l0.3,3l0.5,5.9c0.2,3.8,0.5,7.8,0.5,11.5l0.1,5.7l0.2,6.9c0.2,4.6,0,9.2-0.1,13.8
				c-0.7,18.2-3.5,35.5-7.8,51.8c-8.6,32.7-23.1,61.1-40.5,86c-17.4,24.9-37.8,46.4-59.7,65.4c-44,37.9-94.3,65.9-146.1,88.5
				c-51.9,22.5-105.4,39.5-158.1,53.9c-52.7,14.4-104.6,26.1-153.9,37.9c-24.7,5.9-48.6,11.8-71.8,18c-23.2,6.2-45.6,12.8-66.9,20.1
				c-42.8,14.5-81.7,31.6-116.1,54.2c-19.7-29.9-27.2-63.9-24.9-96.1c2.3-32.2,14.3-62.7,35.2-86.8c21-24.1,50.9-41.9,90.9-49.6
				C1678.8,297.2,1729.1,299.5,1792.3,314.7z"/>
			<g>
				<g>
					<path class="st1" d="M1850.8,612.4c54.2-23.6,107.6-52.6,159.2-87.3c51.5-34.7,101.2-75,146.8-122c22.8-23.5,44.5-48.7,64.6-76
						c20.1-27.3,38.5-56.6,54.1-88.6c1.9-4,3.9-8,5.7-12.1l2.7-6.2l2.6-6.2l1.3-3.1l1.2-3.2l2.5-6.4c1.6-4.3,3.2-8.6,4.6-13
						c5.9-17.5,10.7-35.8,13.9-55c1.6-9.6,2.7-19.4,3.4-29.4c0.1-2.5,0.3-5,0.4-7.6l0.2-7.6l-0.1-7.7c0-2.6-0.2-5.2-0.3-7.8
						c-0.1-2.6-0.3-5.2-0.5-7.8c-0.2-2.6-0.4-5.2-0.8-7.9l-0.5-4l-0.3-2l-0.2-1.8l-1-7c-1.4-9.4-3.1-19-5.4-28.9
						c-2.3-10-5.3-20.3-9.6-31.5c-2.3-5.6-4.7-11.4-8.1-17.5c-3.4-6.1-7.5-12.6-13-19.3c-5.6-6.7-12.8-13.7-22.2-19.8
						c-4.7-3-9.9-5.8-15.4-8c-1.4-0.6-2.8-1.1-4.2-1.6c-1.4-0.5-2.8-0.9-4.3-1.3c-2.9-0.9-5.7-1.5-8.6-2.1
						c-11.5-2.2-22.6-2.1-32-0.8c-9.5,1.2-17.5,3.4-24.6,5.8c-14.2,4.9-25.1,10.5-35,16.1c-9.8,5.6-18.6,11.3-26.9,17
						c-16.5,11.4-31.3,22.9-45.6,34.3c-14.3,11.4-28.1,22.8-41.7,34c-13.5,11.2-27,22.4-40.5,33.6c-26.8,22.2-53.6,43.9-80.7,65
						c-27.1,21.1-54.6,41.6-82.7,61.2c-28,19.7-56.6,38.5-85.7,56.5c-58.3,35.9-118.9,68.2-181.9,96c-31.5,13.9-63.5,26.8-96,38.6
						c-32.5,11.8-65.5,22.4-98.9,32c-66.7,19.1-135.4,33.7-204.9,45c-69.6,11.3-140,19.3-210.6,25c-70.5,5.7-141.2,9.1-211.4,10.9
						c-140.6,3.6-279.5,0.8-414.7-3.3c-67.6-2-134.3-4.4-199.9-5.9C72.9,473.5,40.3,473,8,473c-32.3,0.1-64.4,0.6-96.2,2.4
						c-47.5,2.6-78.9,7.8-97.8,11.9c-18.9,4.1-25.5,6.5-24,6c1.6-0.5,11.3-3.3,25.2-6.2c6.9-1.5,14.9-2.9,23.4-4.3
						c8.5-1.3,17.5-2.5,26.5-3.5c35.9-4,71.7-4.9,74.8-4.9c1.6,0-5,0.1-23.9,1.1c-9.4,0.5-21.9,1.3-38.1,2.8
						c-8.1,0.8-17,1.7-26.9,3.1c-9.9,1.4-20.8,3.1-32.7,5.5"/>
					<path class="st2" d="M1779,750.1c32.9-12.7,65.6-26.8,97.7-42.4c16.1-7.8,32-16,47.9-24.5c15.8-8.5,31.5-17.5,47.1-26.7
						c31.1-18.6,61.6-38.6,91.4-60.3c29.8-21.7,58.8-44.9,86.8-69.9c28-25,55.1-51.8,80.9-80.8c25.8-29,50.2-60.1,72.6-94.2
						c11.2-17.1,21.8-34.9,31.7-53.6c4.9-9.4,9.8-19,14.3-28.9l1.7-3.7l1.7-3.8l3.3-7.6c2.1-5.1,4.3-10.2,6.3-15.5
						c4.1-10.5,7.8-21.3,11.3-32.4c3.5-11.1,6.5-22.7,9.1-34.5c1.4-5.9,2.5-12,3.6-18.1c1-6.2,2-12.4,2.8-18.8
						c1.6-12.7,2.6-25.9,2.8-39.5c0.2-13.6-0.4-27.6-2-41.9l-0.6-5.4c-0.2-1.8-0.5-3.6-0.8-5.4l-0.8-5.4L2387,32
						c-0.9-5.6-1.9-11.3-3-17.1c-2.3-11.7-5.1-24-9.2-37.8c-1-3.4-2.2-7-3.4-10.6l-0.5-1.3l-0.5-1.4l-1-2.8l-1.1-2.8l-0.5-1.4
						l-0.6-1.5l-2.4-6c-0.4-1-0.9-2.1-1.4-3.1l-1.4-3.2l-1.5-3.2l-1.7-3.4l-1.7-3.4l-0.9-1.7c-0.3-0.6-0.6-1.2-1-1.8
						c-1.3-2.4-2.7-4.8-4.1-7.2c-1.5-2.6-3.2-5.1-4.8-7.6c-3.5-5.3-7.3-10.7-12.1-16.4c-2.2-2.7-5-5.9-7.7-8.8c-2.6-2.8-5.9-6-9-9
						l-2.4-2.2c-0.8-0.7-1.8-1.5-2.7-2.3c-1.8-1.5-3.6-3-5.5-4.5c-0.9-0.7-1.8-1.5-2.8-2.2l-3.1-2.3c-2.1-1.5-4.2-2.9-6.3-4.3
						c-1-0.7-2.2-1.4-3.3-2.1l-3.5-2.1c-2.3-1.4-4.6-2.7-7.1-4c-2.5-1.3-5-2.5-7.5-3.7c-2.5-1.2-5.1-2.3-7.8-3.4
						c-5.3-2.1-10.7-4.1-16.2-5.6c-2.8-0.8-5.5-1.5-8.3-2.2c-2.7-0.6-5.5-1.2-8.3-1.7c-5.6-1.1-10.9-1.7-16.3-2.2
						c-1.3-0.1-2.7-0.3-4-0.3l-3.8-0.2c-2.6-0.1-5.1-0.2-7.7-0.2c-1.3,0-2.4,0-3.6,0.1l-3.6,0.1l-3.6,0.2c-1.2,0.1-2.4,0.1-3.5,0.2
						c-2.2,0.2-4.4,0.4-6.6,0.7l-3.3,0.4c-1.1,0.1-2.1,0.3-3.1,0.5c-16.6,2.6-29.7,6.6-40.8,10.7c-11.1,4.1-20,8.3-28,12.4
						c-8,4.1-15,8.1-21.3,11.9l-2.4,1.5l-2.3,1.4l-4.5,2.8c-2.8,1.8-5.7,3.7-8.4,5.5c-10.8,7.3-20.2,14.2-29,20.8
						c-8.8,6.7-17,13.1-24.9,19.5c-15.7,12.7-30.2,24.8-44.4,36.7c-28.2,23.8-54.8,46.5-81.5,68.4c-26.6,21.9-53.2,43-80.1,63.2
						c-26.9,20.3-54,39.6-81.7,58.1c-55.3,37-112.5,70.3-172,99.6c-59.5,29.3-121.3,54.4-185.2,75.3c-16,5.2-32.1,10.2-48.3,14.8
						c-16.2,4.7-32.5,9.1-49,13.2c-33,8.3-66.6,15.6-100.8,22.1c-68.2,12.9-138.3,22.4-209.2,29.4c-70.9,6.9-142.8,11.3-215,13.9
						c-72.2,2.5-144.9,3.2-217.7,2.7c-72.8-0.5-145.8-2.3-218.9-4.4c-73.2-2.1-146.4-4.8-220.3-6.2c-37-0.7-74.2-1.1-111.8-0.5
						c-37.7,0.6-75.8,2.1-115.5,6.2c-13,12-25.7,24.4-37.7,37.2c-12,12.8-23.4,26.2-33.4,40c-5,6.9-9.6,14-13.7,21.1
						c-2,3.6-4,7.2-5.7,10.8c-0.9,1.8-1.7,3.6-2.5,5.4c-0.8,1.8-1.5,3.7-2.2,5.5c-0.7,1.8-1.3,3.7-1.9,5.5c-0.6,1.8-1.2,3.6-1.6,5.4
						c-0.5,1.8-0.9,3.6-1.3,5.3c-0.3,1.8-0.6,3.6-0.9,5.3c-0.9,7-0.7,13.7,0.8,19.6c2.1-2.1,4.7-4.2,7.7-6.3c3-2.1,6.6-4.1,10.3-6.1
						c7.8-3.9,16.7-7.4,26.5-10.3c19.6-5.8,41.6-9.6,64.1-12.1c21.1-23.6,45.2-46.3,70.3-68.1c12.6-10.9,25.4-21.7,38.5-32.3
						c13-10.6,26.3-21,39.6-31.4c-41.3,0-83.2,0-126.5,3.1c-15.1,1.1-33.2,4.8-52.9,11.1c-19.7,6.4-40.9,15.3-61.7,27.6
						c-10.4,6.1-20.6,13.1-30.2,21.1c-9.6,7.9-18.7,16.8-26.3,26.6c-1,1.2-1.9,2.5-2.8,3.7c-0.9,1.2-1.8,2.5-2.7,3.7
						c-1.7,2.6-3.3,5.2-4.9,7.7c-1.5,2.7-2.9,5.2-4.1,7.9c-0.6,1.3-1.2,2.7-1.8,4c-0.6,1.3-1.1,2.6-1.6,4c-4,10.6-5.7,21.1-5.5,30.1
						c0,1.1,0.1,2.3,0.2,3.4c0,0.5,0.1,1.1,0.1,1.6c0.1,0.5,0.1,1.1,0.2,1.6c0.3,2.1,0.6,4.1,1,6c0.5,1.9,1,3.8,1.5,5.5
						c0.3,0.9,0.6,1.7,0.9,2.5c0.3,0.8,0.7,1.6,1,2.4c2.7,6.2,6.2,10.8,9.7,14.1c1.7,1.6,3.6,3,5.3,4c1.8,1,3.5,1.8,5.2,2.2
						c3.4,0.9,6.6,0.7,9.5-0.4c1.5-0.5,2.9-1.3,4.3-2.3c0.7-0.5,1.3-1,2-1.6c0.7-0.6,1.4-1.2,2-1.8c1.2-1.3,2.6-2.7,3.8-4.2
						c1.3-1.4,2.6-3,3.9-4.5c1.3-1.5,2.7-3,4.1-4.5c0.4-0.4,0.8-0.7,1.1-1.1c0.2-0.2,0.4-0.4,0.5-0.6c0.2-0.2,0.4-0.4,0.6-0.6
						c0.4-0.4,0.8-0.8,1.2-1.2c0.5-0.4,0.9-0.8,1.3-1.2c1.9-1.6,4-3.5,6.7-5.6c2.7-2.1,6.2-4.4,10.5-7c5.6-3.3,12.2-6.4,19.5-9.1
						c7.3-2.7,15.2-5.1,23.5-7.1c8.3-2.1,16.9-3.8,25.8-5.4c8.8-1.6,17.9-2.9,27-4.1c12.5-1.6,27.7-5.1,44.7-9.6
						c16.9-4.5,35.6-10,54.5-16.1c37.9-12.2,77.1-26.9,105.5-41.5c28.4-14.6,45.9-29.4,40.7-41.4c-2.6-6-11-11.4-26.6-15.5
						c-15.6-4.1-38.5-7-70.4-7.7c-25.4-0.5-51.1-0.5-77.2,0.2c-26.1,0.8-52.5,2.3-79.7,5.2c-15.3,1.7-33.9,6.1-54,13.6
						c-10,3.8-20.5,8.4-31.1,14c-10.6,5.6-21.4,12.1-31.9,19.8c-10.5,7.7-20.8,16.7-30,27c-9.2,10.3-17.2,22.2-22.6,34.7
						c-2.8,6.2-4.8,12.6-6.3,18.8c-0.7,3.2-1.2,6.2-1.6,9.3c-0.2,1.5-0.3,3-0.4,4.5c-0.1,1.5-0.2,2.9-0.2,4.4
						c-0.2,11.6,1.9,21.8,5,30.2c6.5,16.7,16.2,26.5,24.5,31.7c8.5,5.1,15.7,5.5,21,1.9c1.3-0.9,2.6-2.1,3.7-3.5
						c0.6-0.7,1.1-1.5,1.6-2.3c0.5-0.8,1-1.7,1.5-2.6c0.5-0.9,0.9-1.9,1.3-2.9c0.4-1,0.9-2.1,1.3-3.2c0.8-2.2,1.7-4.5,2.4-7
						c1.6-4.9,3.6-9.8,5.8-14.2c1.2-2.2,2.4-4.2,3.9-6.3c1.5-2.1,3.4-4.4,6-7c3-2.9,6.8-5.9,11.6-8.7c4.7-2.9,10.2-5.6,16.2-8.1
						c6-2.5,12.6-4.8,19.5-6.8c6.9-2,14.1-3.9,21.6-5.5c7.4-1.6,15.1-3.1,22.9-4.3c3.9-0.7,7.8-1.2,11.8-1.8c4-0.5,7.9-1.1,11.9-1.6
						c16-1.9,32.4-3.4,49-4.5c33.2-2.2,67.1-3.2,101.3-3.6c34.2-0.4,68.8-0.2,103.5,0.2c69.5,0.8,139.7,2.5,210.3,3.7
						c70.6,1.2,141.5,2.1,212.7,1.8c142.3-0.5,285.4-5.2,427.2-19.1c70.9-7,141.5-16.3,211.1-29c69.7-12.6,138.4-28.7,205.4-49.3
						c33.5-10.2,66.7-21.6,99.3-33.9c32.7-12.3,64.9-25.8,96.6-40.2c63.4-28.8,124.7-61.7,183.9-98.1
						c59.2-36.3,116.2-76,171.8-117.9c27.8-20.9,55.3-42.3,82.7-63.8c13.7-10.7,27.5-21.5,41.3-32.2c13.8-10.6,27.7-21.2,41.9-31.3
						c14.2-10.1,28.6-19.8,43.5-28.1c3.7-2.1,7.5-4,11.3-5.8c3.8-1.7,7.6-3.3,11.4-4.7c7.6-2.6,15.4-4.3,21.9-3.6
						c3.3,0.3,6.2,1.1,8.6,2.4c2.5,1.3,4.6,3.1,6.6,5.3c4,4.4,7.2,10.5,9.8,17.4c2.6,6.9,4.5,14.4,6.1,22.2
						c1.6,7.8,2.7,15.8,3.7,23.9c0.5,4.1,0.9,8.1,1.2,12.2l0.3,3.1l0.1,2.9c0.1,1.9,0.2,3.8,0.2,5.7c0.2,7.6-0.3,15.1-1.1,22.7
						c-1.6,15.1-4.9,30-9.4,44.6c-4.5,14.6-10.3,28.9-17,42.9c-6.6,13.9-14.3,27.5-22.6,40.7c-8.3,13.2-17.3,26-26.8,38.4
						c-9.5,12.4-19.6,24.5-30.2,36.2c-21.1,23.4-43.9,45.2-67.9,65.7c-48.1,40.9-100.8,76.3-156.1,106.3
						c-18.8,10.2-41.3,35.8-64.5,67.3c-11.6,15.8-23.4,33-34.7,50.6c-11.3,17.6-22.3,35.6-32,52.9c-9.7,17.3-18.3,33.9-24.6,48.8
						c-6.4,14.8-10.7,28-11.8,38.3c-1.1,10.3,0.9,17.8,7,21.3C1753.6,756.4,1763.8,755.9,1779,750.1z"/>
				</g>
			</g>
		</g>
	</g>
</g>
</svg>
